<svg xmlns="http://www.w3.org/2000/svg" viewBox="0 0 469.93 153.13" fill="white"><g id="圖層_2" data-name="圖層 2"><g id="圖層_1-2" data-name="圖層 1"><path d="M469.93,152.63c-9.94.9-19.9.29-29.86.44-7.13.11-12.71-3.28-17.8-7.69-9.15-7.92-16.54-17.45-24.08-26.83-1.13-1.41-2.61-2.52-3.55-4.12-.41-.71-.71-1.38-.22-2s1.15.07,1.68.26c4.79,1.74,8.2,5.52,12.26,8.33,5.52,3.82,11.18,7.4,16.87,11,4.87,3,9.9,5.74,15,8.31,4.29,2.16,9,3.42,13.53,4.87a92.48,92.48,0,0,1,16.16,6.37Z"/><path d="M37.31,0c4.86,4.21,10.74,6.7,16.45,9.4,3.62,1.71,5.91,4.71,8.43,7.53,1,1.16-.16,2-.9,2.75a25.44,25.44,0,0,1-7,4.18c-6,2.8-12.11,5.21-17.41,9.24a1.83,1.83,0,0,1-1.7.21c1.07-4.52,4.29-7.59,6.93-10.93,1.76-2.23,2.25-3.88.42-6.33-2.81-3.78-5.23-7.83-6.17-12.58A6.92,6.92,0,0,1,36.21,0Z"/><path d="M206.29,38.6c1.55,3.35,1.08,6.77,2.32,9.77.65,1.55.87,3.17,3.56,2.37,5.65-1.69,5.81-1.47,6.25-8.81A12.57,12.57,0,0,1,220,36.54c.4-.74.55-2,1.71-1.79.9.15.91,1.27,1.14,2,.7,2.21,1.49,4.4,1.2,6.83a8.36,8.36,0,0,0,.73,2.6,52.21,52.21,0,0,1,10.6-5.52c.6-.24,1.39-.55,1.05-1.28a4.73,4.73,0,0,0-2.26-2.54c-.85-.37-2.28.17-2.4-1.24-.13-1.6,1.46-1.63,2.46-2.08,4.54-2.09,6.22-1.74,10,2.11.56.59,1,.74,1.61.43A28.07,28.07,0,0,1,253.28,34c2.14-.42,2.44-2.44,3-4.1.18-.49-.06-1.11.06-1.64.26-1.16-.83-2.88.65-3.41S259.6,26,260.52,27a7.86,7.86,0,0,1,2.3,4.84c0,2.27,1.32,2.45,2.89,2.67a5.26,5.26,0,0,1,2.39.44c.49.32.94.5.85,1.19-.07.5-.4,1-.78,1-4.83-.5-5.93,3.16-7.25,6.49-1.53,3.83-4.32,6.64-7.23,9.39-.6.57-1.34,1.38-1,2.05.44.83,1.39.16,2.17.06,7.16-.94,14.12-3.25,21.45-3a12.05,12.05,0,0,0,4.56-.61c2.75-1.05,4.83.29,6.79,1.67a40.24,40.24,0,0,1,9.08,8.92c.66.9,1.2,2,.54,3s-1.94.89-3,.49c-8.8-3.45-17.85-1.8-26.86-1.52-3.84.12-7.5,1.21-11.6,1.32,2.18,2.91,4.23,5.39,8.13,5.43,2.69,0,4,2.48,5.87,4,.57.46.13,1.36-.25,2a11.9,11.9,0,0,1-6.08,5.6c-1.74.66-2.88,1.71-2.84,3.81.08,4.36.06,8.72,0,13.08,0,1.57.32,1.84,1.9,1.2,2.86-1.18,4.59-2.56,3.33-6.07-.43-1.21.23-2.82.44-4.65a50.79,50.79,0,0,0,10.07,9c1.07.76.81,1.66.22,2.61a10.41,10.41,0,0,1-5.68,4.42c-2.74.92-5.45,1.9-8.22,2.7-1.61.46-2.11,1.33-2.09,2.95.08,5.31.11,10.61,0,15.92-.06,3.16-.22,6.32-1.81,9.24-1.35,2.49-1.34,5.38-2,8.08-.23.94-.58,1.84-1.08,3.42A36.34,36.34,0,0,1,252,133.71c-.2-6.4-.14-12.81,0-19.21,0-2.22-.82-2.25-2.57-1.89-4.21.87-8.26,2.52-12.63,2.7a9.86,9.86,0,0,1-5-1.08c-2.06-1-2.54-2.53-1.07-4.34,2.68-3.32,5.84-6.33,8.08-9.92,2.62-4.19,6.38-7.41,9-11.56a1.63,1.63,0,0,0,.34-1.49c-3.25,1.54-6.55,2.89-9.43,5-.58.44-1.46.7-1.73,1.27-1.45,3.06-4.43,3.63-7.17,4.53-2.29.75-3.07,2.31-3,4.58.31,10.58-3.55,19.71-9.91,27.9-3.56,4.58-13,7.24-18.61,5.42-4.74-1.53-5.87-4.11-3.77-8.61a61.27,61.27,0,0,1,12.28-17.37c3.83-3.83,7.91-7.43,11.63-11.36,2.38-2.5,2.72-6,3.75-9.25-3.11,1.38-6.05,2.71-8.37,5.21S208.1,96.67,205,97c-1.46.17-1.67-1.1-.81-2.28a63.16,63.16,0,0,1,5-6.75c2.78-2.89,4.68-6.58,8.47-8.86a2.51,2.51,0,0,0-2.76-.31,235.81,235.81,0,0,0-22.59,9,81.72,81.72,0,0,0-14.07,8.12,15,15,0,0,1-11,2.91C163,98.36,159,92,160.33,87.87c.4-1.28,1-1,1.7-.19,3.41,4.06,4.64,3,8.44,1.7,10-3.57,19.25-8.92,28.94-13.25A39,39,0,0,0,209.83,70c1.57-1.39,4.11-1.74,6.26-2.4,1.46-.44,2.31-1,1.55-2.67a14.71,14.71,0,0,1-1.32-7.12c.09-1.52-.53-1.86-1.91-1.79-3.41.19-3.94.75-4.78,4.22-.69,2.89-1.74,5.68-2.58,8.53-.27.89-.46,1.93-1.6,1.85a2.23,2.23,0,0,1-1.93-1.71,35.82,35.82,0,0,1-2-8.89c-.09-1.41-.1-2.37-2-2.43a9.49,9.49,0,0,1-4.34-1.45c-.46-.28-1.21-.42-1.16-.93A1.61,1.61,0,0,1,195,54c5.29-.56,7-4.31,8.06-8.76A18.36,18.36,0,0,1,206.29,38.6Zm45.05,33.67c-.52-.65-.38-1.48-.48-2.28-.14-1.09-.09-2.84-1.26-2.84-1.57,0-3.84.43-4.6,1.53a76.53,76.53,0,0,1-9.63,10.7c-1.88,1.84-3.77,4-6.08,5-3.9,1.84-4.2,2.84-3,6.07a8.28,8.28,0,0,1,.44,1.83c.21,1.69,1,1.81,2.14.79,3-2.81,6-5.67,9-8.5s5.9-5.85,10-7.33C250,76.47,251,74.59,251.34,72.27ZM200.72,129.5a20.61,20.61,0,0,1,2.38-.45,12.92,12.92,0,0,0,11-6.37c3-4.58,3.12-10.09,4.85-15.09a.68.68,0,0,0-.42-.89c-.56-.19-.82.3-1.1.6-1.73,1.88-3.35,3.86-5.16,5.66C207.56,117.66,204.11,123.19,200.72,129.5Zm32.59-73.74V53.3c0-3.27-.39-3.52-3.6-2.24-3.7,1.47-5.6,9.21-3,12.16a.86.86,0,0,0,.88.36c3.75-.42,5.72-2.63,5.72-6.45Zm10.51,50.08c2.7-.92,6.33.33,7.89-2.35.95-1.63.68-4.44-.63-6.79C248.23,99.63,245.62,102.34,243.82,105.84Zm5.91-62.57c-2.11.66-4.47.75-5.29,2.65-1.55,3.6-1.39,7.56-1.27,11.52Z"/><path d="M32.14,69.51c-3.86,1.65-7.44,3.12-11,4.69a30.39,30.39,0,0,1-6,1.58,5.72,5.72,0,0,1-5.52-1.65A17.74,17.74,0,0,1,4.37,62.31c0-.51-.23-1.23.31-1.5.7-.36,1.11.27,1.55.76,3.09,3.5,7.12,3.86,11.26,2.9,8.23-1.91,15-6.87,22.11-11.09,3.11-1.84,6.09-3.9,9.15-5.8,1.84-1.15,6.12-.4,7.41,1.23,1,1.21.22,4.31-1.6,6.08-3.33,3.24-7.3,5.61-11.27,8-1.84,1.09-3,2.26-3.19,4.55a22.26,22.26,0,0,1-1.93,6.69,2.87,2.87,0,0,0,.89,3.83A33.43,33.43,0,0,1,49.07,90,30,30,0,0,1,51.25,98c1.53,9.9,0,19.23-5.73,27.51-3,4.33-6.75,8.19-12.05,9.73s-10.08-.74-14.54-3.48a1.48,1.48,0,0,1-.65-1.11c.08-.73.82-.49,1.32-.59,2.2-.43,4.44-.73,6.6-1.34,5.53-1.55,9.07-5.49,11.61-10.37,2.43-4.66,4.39-9.54,4.39-14.89,0-5.82-2.07-13.79-6.6-17.82C32.9,89.8,30.42,94,27.5,98c-4.58,6.15-9.2,12.33-15.41,17-3,2.27-6.36,3.51-10.12,1.88-2.52-1.09-2.53-1.48-.56-3.27A137.78,137.78,0,0,0,24,87.56C27.61,82.16,30.81,76.47,32.14,69.51Z"/><path d="M77.54,112.74C86.35,120.92,97.11,124,108,126.86c11.69,3,23.38,6,35.51,6.73.62,0,1.21.59,2.23,1.12-1.69.71-2.88,1.57-4.12,1.65-5.63.39-11.14,1.44-16.69,2.32-5.78.92-11.51-.27-17.15-1.92C98,133.88,88.34,130.5,79.63,125a54.41,54.41,0,0,1-9.45-7.3,3.15,3.15,0,0,0-3.61-1c-3.21,1-6.48,1.66-9.81.21a3,3,0,0,1-2-3.21c.1-1.58,1.31-2,2.66-2.25,7.37-1.42,14.77-2.85,21.53-6.3A38.86,38.86,0,0,0,94,92.23a10.89,10.89,0,0,0,.7-1.66c-6.49,1.13-12.21,3.69-18,6a14.08,14.08,0,0,1-7.46,1.13,4.77,4.77,0,0,1-2.84-1.48c-1.72-1.8-1.5-2.92.9-3.57,6.82-1.88,13.06-5.3,19.78-7.44,4.45-1.41,8.91-2.56,13.64-2.36,3.06.12,4.76,2.4,3.48,5.28A44.81,44.81,0,0,1,91.61,105C87.4,108.43,82.47,110.5,77.54,112.74Z"/><path d="M89.65,28.75c3.73-1.94,7.22-3.8,10.75-5.56s6.57-4.2,10.73-4a26.86,26.86,0,0,1,7.36,1.73c2.1.72,1.29,2.58,1,4-1.34,5.66-3.58,10.33-9.39,13.3a73.72,73.72,0,0,0-18,13.5,4.71,4.71,0,0,1-1.18.55c1.26-9.51,8.63-14.88,13.72-22-4.55,1.5-8.23,4.25-12.15,6.54-4.84,2.82-9.54,5.83-14.14,9-1,.72-1.65.9-2.75-.52-2.28-3-1.06-6.35-1.93-9.44A14.49,14.49,0,0,0,73,33c-1-1.92-.22-2.8,1.61-2.08s1.78-.42,2.28-1.3A48.71,48.71,0,0,0,83.46,3.34c0-.7-.55-1.78.51-2.14s1.72.61,2.12,1.36C87.33,5,88.67,7.28,89,10.08c.68,5.69,1.66,11.35.48,17.08A6.26,6.26,0,0,0,89.65,28.75Z"/><path d="M249.94,25c1.7-4.25,3.88-8.37,4.35-13,.24-2.34-.3-2.82-2.54-2.1-9.21,3-17.8,7.31-26.27,12-5.16,2.85-9.78,6.67-15.47,8.59a30.55,30.55,0,0,1-3.95,1c-3.88.77-4.11.59-3.5-3.4.82-5.34,4.31-9.28,7.25-13.49C212,11.38,214,8.16,213.94,4.11c0-1.4.23-1.55,1.5-.83,2.93,1.64,5.05,3.76,5.44,7.26.12,1.16.31,2.31.51,3.76,4.14-1.91,8.05-3.84,12.06-5.52,4.45-1.87,9.05-3.38,13.49-5.29,4.76-2,9.5-.66,14.28-.45a8.33,8.33,0,0,1,6.36,3.09c.45.53,1.09,1,.51,1.88a58,58,0,0,1-15.82,16.64C251.61,25.1,250.93,25.69,249.94,25Z"/><path d="M389,6c6.69-.54,11.19,2.57,14.25,8.31a8.31,8.31,0,0,1,.7,5c-1.61,14.59-8.55,26.56-18.14,37.33-3.28,3.68-7,6.91-10.38,10.45-4.34,4.5-10.37,6.18-15.91,8.61-1.4.62-2.86,1.1-4.31,1.59-.5.17-1.18.33-1.48-.21s.25-1,.66-1.35c3.17-2.57,6.3-5.19,9.53-7.67a84.21,84.21,0,0,0,21.36-24.44c3-5.09,6.05-10.15,7.77-15.84,1.83-6.09,2.56-11.36-5.32-15.2-1.7-.83-2.75-2.79-3.75-4.5-.62-1.06.1-1.43,1-1.75A11.86,11.86,0,0,1,389,6Z"/><path d="M59.06,65.05c.89,2.19,1,4.46,2.15,6.47s2.41,3.08,5,2.27c7.24-2.25,13.72-6,20.29-9.66,7.68-4.24,15.24-8.64,24.24-9.65,2.79-.31,4.94,1,7.24,2,1.42.6,1.83,4.89.5,6.81C113.67,70.22,108,76.18,99,77.3c-1.08.14-2.74.71-3.21-.64s1-2.3,2-2.91c3.75-2.24,7.48-4.49,10.56-7.64.44-.45.92-.89,1.32-1.37s1.1-.86.74-1.61c-.47-1-1.27-.35-1.92-.26-7.85,1.06-14.22,5.35-20.75,9.39C81.52,76.06,75.45,80,68.91,83.14a17.4,17.4,0,0,1-6.68,2,4.68,4.68,0,0,1-5-3.52C55.63,76,56.6,70.38,59.06,65.05Z"/><path d="M387.51,85.13c0-5.64.52-10.75-1.74-15.58-.51-1.08.49-1.15,1.23-1.16,2.84-.06,4.58,2.38,7.06,3.16a.72.72,0,0,1,.31.93c-1.43,4-.16,8.09-.3,12.13-.26,7.42-.06,15-3.36,21.94-2,4.14-2.43,9-5.7,12.52-2.32,2.53-4.24,5.34-7.29,7.29-2.32,1.48-4.44,3.33-6.9,4.69-6.47,3.57-13.57,4.43-20.74,5.07-.92.09-2.26.33-2.38-1.09-.1-1.21.74-1.87,2-2.15a47,47,0,0,0,17-7c7.64-5.33,13.66-11.9,16.7-20.9.84-2.5,2.2-4.79,2.91-7.36A39,39,0,0,0,387.51,85.13Z"/><path d="M394.31,51.85c7.27,1.21,14.25.47,21.09,1.48,5.63.84,10.25,4.16,14.82,7.31,1.68,1.17,2.27,3.41,3,5.32.6,1.58-.55,2.58-1.84,3.18a11,11,0,0,1-5.57,1.12A62.28,62.28,0,0,0,407.1,72a21.82,21.82,0,0,0-3.73,1.62c-.84.37-1.81.92-2.46-.05a1.6,1.6,0,0,1,.72-2.35c2.58-1.37,3.3-4.73,6.25-5.71.84-.27.89-1.19.29-1.82-1.36-1.43-2.4-3.11-4.61-3.65C398.12,58.73,397.05,57.69,394.31,51.85Z"/><path d="M382,87.36c-2.21,3.7-5.4,6.56-7.92,9.93-2.16,2.9-4.22,5.9-6.6,8.61-2.74,3.12-6.55,4.68-10.29,6.28-.86.37-1.17-.16-1.58-.58-5.39-5.38-6.31-11.52-.81-17.59,1.9-2.1,4.11-3.91,6-6s4.79-2,7-3.26a1,1,0,0,1,.92.32c.31.53.06,1-.39,1.44-1.88,1.78-2.92,4.12-4.15,6.34-.55,1-1.36,2.14-.48,3,.7.64,1.8-.4,2.64-.82a135.7,135.7,0,0,0,12.75-7.1C379.89,87.33,380.76,86.72,382,87.36Z"/><path d="M404.65,44.23c2.42-1.72,3.81-4.08,6-5.46,1.7-1.05,3.35-2.19,5-3.34a5.63,5.63,0,0,0,1.84-1.59c2-3.64,5.73-6.19,6.47-10.6.2-1.21,1.42-1.26,2.38-1.48,2.44-.57,5-.74,6.9-2.8,1-1,2.05-.36,2.43,1a13.62,13.62,0,0,1,.11,6c-1,5.74-3.48,10.88-8.39,14.12-4.19,2.77-8.73,5.24-14.15,4.74C410.41,44.52,407.53,44.41,404.65,44.23Z"/><path d="M399.27,96.83c2.06-1.56,4.5-1.69,6.73-2.3a12.92,12.92,0,0,0,8.58-9.13,28.1,28.1,0,0,1,2.66-6.13c.44-.91,3-.93,4.59-1.11,3.31-.38,6.59-.83,8.82,2.78,1.25,2,1.39,4.37-.44,5.83-4.31,3.43-8.54,7-13,10.17-4.88,3.5-10.37,3.43-15.89,1.73C400.55,98.43,400,97.51,399.27,96.83Z"/><path d="M377.14,39.61c-.22,2.34-1.48,3.87-2.57,5.48-3,4.47-7.61,7.64-10.35,12.39a18.43,18.43,0,0,0-2,4.4,2.83,2.83,0,0,1-2.15,2.21c-.94.12-1.3-1-1.78-1.8-4.62-7.49-1.78-18.8,4.83-24.27,1.15-.94,2.15-2.93,3.56-2.59s.87,2.54,1.4,3.85c1,2.5,3.36,3.31,6.08,2C375.1,40.87,375.93,40.31,377.14,39.61Z"/><path d="M265.94,115.82c2.25-.14,4.09,0,5.83,1.68s3.85,2.67,5.8,4c1.53,1,2.66,2.32,2.32,4.28-.42,2.42-.95,4.91-3.23,6.29-1.37.82-2.42-.47-3.26-1.32a23.19,23.19,0,0,1-4.54-7A32.78,32.78,0,0,1,265.94,115.82Z"/></g></g></svg>